<svg width="109" height="19" viewBox="0 0 109 19" fill="none" xmlns="http://www.w3.org/2000/svg">
<path d="M2.91992 1.16602L8.75977 9.69727L14.5742 1.16602H16.1104L9.58496 10.7256V18H6.75391V10.9922L0.0253906 1.16602H2.91992ZM26.9902 18.3936C25.6868 18.3936 24.4681 18.1608 23.334 17.6953C22.2083 17.2298 21.2266 16.5951 20.3887 15.791C19.5592 14.9785 18.9033 14.0348 18.4209 12.96C17.9469 11.8766 17.71 10.7214 17.71 9.49414C17.71 8.6901 17.8158 7.91569 18.0273 7.1709C18.2474 6.42611 18.5563 5.7321 18.9541 5.08887C19.3519 4.44564 19.8301 3.86165 20.3887 3.33691C20.9557 2.80371 21.582 2.35091 22.2676 1.97852C22.9531 1.59766 23.6937 1.30566 24.4893 1.10254C25.2848 0.890951 26.1185 0.785156 26.9902 0.785156C27.862 0.785156 28.6956 0.890951 29.4912 1.10254C30.2868 1.30566 31.0273 1.59766 31.7129 1.97852C32.4069 2.35091 33.0332 2.80371 33.5918 3.33691C34.1504 3.86165 34.6286 4.44564 35.0264 5.08887C35.4326 5.7321 35.7415 6.42611 35.9531 7.1709C36.1732 7.91569 36.2832 8.6901 36.2832 9.49414C36.2832 10.3066 36.1732 11.0938 35.9531 11.8555C35.7415 12.6087 35.4326 13.3154 35.0264 13.9756C34.6286 14.6357 34.1504 15.2367 33.5918 15.7783C33.0332 16.32 32.4069 16.7855 31.7129 17.1748C31.0273 17.5641 30.2868 17.8646 29.4912 18.0762C28.6956 18.2878 27.862 18.3936 26.9902 18.3936ZM26.9902 17.5557C27.9551 17.5557 28.8057 17.3568 29.542 16.959C30.2868 16.5527 30.9131 15.9899 31.4209 15.2705C31.9287 14.5511 32.3096 13.7005 32.5635 12.7188C32.8258 11.737 32.957 10.6621 32.957 9.49414C32.957 8.33464 32.8258 7.27246 32.5635 6.30762C32.3096 5.34277 31.9287 4.51335 31.4209 3.81934C30.9131 3.11686 30.2868 2.5752 29.542 2.19434C28.8057 1.80501 27.9551 1.61035 26.9902 1.61035C26.0085 1.61035 25.1452 1.80501 24.4004 2.19434C23.6641 2.5752 23.042 3.11686 22.5342 3.81934C22.0348 4.51335 21.6582 5.34277 21.4043 6.30762C21.1504 7.27246 21.0234 8.33464 21.0234 9.49414C21.0234 10.6621 21.1504 11.737 21.4043 12.7188C21.6582 13.7005 22.0348 14.5511 22.5342 15.2705C23.042 15.9899 23.6641 16.5527 24.4004 16.959C25.1452 17.3568 26.0085 17.5557 26.9902 17.5557ZM39.8379 1.16602H42.6689V12.0967C42.6689 12.8161 42.7917 13.4932 43.0371 14.1279C43.2826 14.7542 43.6338 15.3044 44.0908 15.7783C44.5479 16.2523 45.098 16.6289 45.7412 16.9082C46.3929 17.179 47.1165 17.3145 47.9121 17.3145C48.7161 17.3145 49.4398 17.179 50.083 16.9082C50.7262 16.6289 51.2721 16.2523 51.7207 15.7783C52.1777 15.3044 52.5247 14.7542 52.7617 14.1279C53.0072 13.4932 53.1299 12.8161 53.1299 12.0967V1.16602H54.374V12.0967C54.374 12.96 54.2344 13.7725 53.9551 14.5342C53.6758 15.2959 53.2357 15.9645 52.6348 16.54C52.0423 17.1071 51.2806 17.5599 50.3496 17.8984C49.4186 18.2285 48.3014 18.3936 46.998 18.3936C45.8385 18.3936 44.8102 18.2285 43.9131 17.8984C43.0244 17.5599 42.2754 17.1029 41.666 16.5273C41.0651 15.9518 40.6081 15.279 40.2949 14.5088C39.9902 13.7301 39.8379 12.9007 39.8379 12.0205V1.16602ZM58.6777 1.16602H65.457C66.3542 1.16602 67.1751 1.26758 67.9199 1.4707C68.6732 1.66536 69.3164 1.94466 69.8496 2.30859C70.3913 2.67253 70.8102 3.1084 71.1064 3.61621C71.4027 4.12402 71.5508 4.68262 71.5508 5.29199C71.5508 5.75749 71.5042 6.1722 71.4111 6.53613C71.318 6.90007 71.153 7.23861 70.916 7.55176C70.679 7.85645 70.3617 8.14844 69.9639 8.42773C69.5745 8.69857 69.0794 8.97786 68.4785 9.26562V9.31641C69.0794 9.40951 69.6211 9.57031 70.1035 9.79883C70.5859 10.0273 70.9964 10.3193 71.335 10.6748C71.682 11.0218 71.9486 11.4323 72.1348 11.9062C72.321 12.3717 72.4141 12.8838 72.4141 13.4424C72.4141 14.0771 72.2744 14.6738 71.9951 15.2324C71.7243 15.7826 71.3307 16.265 70.8145 16.6797C70.3066 17.0859 69.6888 17.4076 68.9609 17.6445C68.2415 17.8815 67.4333 18 66.5361 18H58.6777V1.16602ZM61.5088 8.74512H65.1143C65.6813 8.74512 66.1849 8.66471 66.625 8.50391C67.0651 8.3431 67.4375 8.12305 67.7422 7.84375C68.0469 7.55599 68.2754 7.21745 68.4277 6.82812C68.5885 6.43034 68.6689 6.00293 68.6689 5.5459C68.6689 5.05501 68.5758 4.61068 68.3896 4.21289C68.2035 3.80664 67.9115 3.45964 67.5137 3.17188C67.1243 2.88411 66.625 2.66406 66.0156 2.51172C65.4147 2.35938 64.6911 2.2832 63.8447 2.2832H61.5088V8.74512ZM61.5088 16.7686H64.5684C65.3893 16.7686 66.1003 16.6924 66.7012 16.54C67.3105 16.3792 67.8099 16.1592 68.1992 15.8799C68.597 15.5921 68.889 15.2493 69.0752 14.8516C69.2699 14.4538 69.3672 14.0179 69.3672 13.5439C69.3672 13.0107 69.2826 12.5156 69.1133 12.0586C68.944 11.6016 68.6647 11.208 68.2754 10.8779C67.8945 10.5394 67.391 10.2728 66.7646 10.0781C66.1468 9.88346 65.3851 9.78613 64.4795 9.78613H61.5088V16.7686ZM75.6133 1.16602H78.4443V12.0967C78.4443 12.8161 78.5671 13.4932 78.8125 14.1279C79.0579 14.7542 79.4092 15.3044 79.8662 15.7783C80.3232 16.2523 80.8734 16.6289 81.5166 16.9082C82.1683 17.179 82.8919 17.3145 83.6875 17.3145C84.4915 17.3145 85.2152 17.179 85.8584 16.9082C86.5016 16.6289 87.0475 16.2523 87.4961 15.7783C87.9531 15.3044 88.3001 14.7542 88.5371 14.1279C88.7826 13.4932 88.9053 12.8161 88.9053 12.0967V1.16602H90.1494V12.0967C90.1494 12.96 90.0098 13.7725 89.7305 14.5342C89.4512 15.2959 89.0111 15.9645 88.4102 16.54C87.8177 17.1071 87.056 17.5599 86.125 17.8984C85.194 18.2285 84.0768 18.3936 82.7734 18.3936C81.6139 18.3936 80.5856 18.2285 79.6885 17.8984C78.7998 17.5599 78.0508 17.1029 77.4414 16.5273C76.8405 15.9518 76.3835 15.279 76.0703 14.5088C75.7656 13.7301 75.6133 12.9007 75.6133 12.0205V1.16602ZM95.0879 1.16602L100.928 9.69727L106.742 1.16602H108.278L101.753 10.7256V18H98.9219V10.9922L92.1934 1.16602H95.0879Z" fill="black"/>
</svg>
